<svg width="22" height="16" viewBox="0 0 22 16" fill="none" xmlns="http://www.w3.org/2000/svg">
<path fill-rule="evenodd" clip-rule="evenodd" d="M10.8126 2C7.55898 2 4.91481 4.69 4.91481 8H7.8637L3.93185 12L0 8H2.94889C2.94889 3.58 6.46789 0 10.8126 0C12.3558 0 13.791 0.46 15 1.24L13.5649 2.7C12.749 2.25 11.8054 2 10.8126 2ZM14.1363 8L18.0682 4L22 8H19.0511C19.0511 12.42 15.5321 16 11.1874 16C9.64417 16 8.20904 15.54 7 14.76L8.43512 13.3C9.25098 13.75 10.1946 14 11.1874 14C14.441 14 17.0852 11.31 17.0852 8H14.1363Z" fill="#66788A"/>
<mask id="mask0" mask-type="alpha" maskUnits="userSpaceOnUse" x="0" y="0" width="22" height="16">
<path fill-rule="evenodd" clip-rule="evenodd" d="M10.8126 2C7.55898 2 4.91481 4.69 4.91481 8H7.8637L3.93185 12L0 8H2.94889C2.94889 3.58 6.46789 0 10.8126 0C12.3558 0 13.791 0.46 15 1.24L13.5649 2.7C12.749 2.25 11.8054 2 10.8126 2ZM14.1363 8L18.0682 4L22 8H19.0511C19.0511 12.42 15.5321 16 11.1874 16C9.64417 16 8.20904 15.54 7 14.76L8.43512 13.3C9.25098 13.75 10.1946 14 11.1874 14C14.441 14 17.0852 11.31 17.0852 8H14.1363Z" fill="white"/>
</mask>
<g mask="url(#mask0)">
</g>
</svg>
