<svg width="20" height="20" viewBox="0 0 20 20" fill="none" xmlns="http://www.w3.org/2000/svg">
<mask id="mask0" mask-type="alpha" maskUnits="userSpaceOnUse" x="0" y="0" width="20" height="20">
<path fill-rule="evenodd" clip-rule="evenodd" d="M2.47302 0.521576H17.2172C18.3757 0.521576 19.3235 1.46942 19.3235 2.62789V17.3721C19.3235 18.5306 18.3757 19.4784 17.2172 19.4784H2.47302C1.30401 19.4784 0.366699 18.5306 0.366699 17.3721V13.1595H2.47302V17.3721H17.2172V2.62789H2.47302V6.84052H0.366699V2.62789C0.366699 1.46942 1.30401 0.521576 2.47302 0.521576ZM9.31854 15.2658L7.83359 13.7808L10.5507 11.0532H0.366699V8.94684H10.5507L7.83359 6.21916L9.31854 4.73421L14.5843 10L9.31854 15.2658Z" fill="white"/>
</mask>
<g mask="url(#mask0)">
<rect x="-2" y="-2" width="24" height="24" fill="white"/>
</g>
</svg>
