<svg width="244" height="244" viewBox="0 0 244 244" fill="none" xmlns="http://www.w3.org/2000/svg">
    <path fill-rule="evenodd" clip-rule="evenodd" d="M122.533 244C189.379 244 244 189.379 244 122.533C244 54.6213 189.379 0 122.533 0C54.6213 0 0 54.6213 0 122.533C0 189.379 54.6213 244 122.533 244Z" fill="#F7D154"/>
    <mask id="mask0" mask-type="alpha" maskUnits="userSpaceOnUse" x="0" y="0" width="244" height="244">
    <path fill-rule="evenodd" clip-rule="evenodd" d="M122.533 244C189.379 244 244 189.379 244 122.533C244 54.6213 189.379 0 122.533 0C54.6213 0 0 54.6213 0 122.533C0 189.379 54.6213 244 122.533 244Z" fill="white"/>
    </mask>
    <g mask="url(#mask0)">
        <path fill-rule="eve2nodd" clip-rule="evenodd" d="M11.3018 68.1682L152.05 130.989L198.234 27C207.754 34.8067 216.249 44.2009 223.306 55.0948C259.999 111.737 243.94 187.473 187.438 224.257C130.936 261.041 55.387 244.942 18.6942 188.3C-5.46182 151.011 -6.7554 105.446 11.3018 68.1682Z" fill="#EC4C47"/>
        <path fill-rule="evenodd" clip-rule="evenodd" d="M60 228.854L118.599 140.307V-3C119.514 -2.99616 120.087 -3 119.771 -3C188.537 -3 244 52.2928 244 120.5C244 188.707 188.537 244 119.771 244C98.6022 244 77.9236 238.342 60 228.854Z" fill="#1070CA"/>
        <path fill-rule="evenodd" clip-rule="evenodd" d="M122 222C177.228 222 222 177.228 222 122C222 66.7715 177.228 22 122 22C66.7715 22 22 66.7715 22 122C22 177.228 66.7715 222 122 222Z" fill="white"/>
    </g>
</svg>
