<svg width="18" height="21" viewBox="0 0 18 21" fill="none" xmlns="http://www.w3.org/2000/svg">
<mask id="mask0" mask-type="alpha" maskUnits="userSpaceOnUse" x="0" y="0" width="18" height="21">
<path fill-rule="evenodd" clip-rule="evenodd" d="M8.56486 17.5163V20.6483L9.80896 20.048C14.2721 17.8991 17.2649 13.5665 17.2649 9.26C17.2649 4.7012 13.5587 0.994995 8.99986 0.994995C4.44106 0.994995 0.734863 4.7012 0.734863 9.26C0.734863 13.6709 4.20616 17.2901 8.56486 17.5163ZM2.47486 9.26C2.47486 5.6582 5.39806 2.735 8.99986 2.735C12.6017 2.735 15.5249 5.6582 15.5249 9.26C15.5249 12.4964 13.4717 15.785 10.3049 17.786V15.785H8.99986C5.39806 15.785 2.47486 12.8618 2.47486 9.26ZM9.86986 12.74V14.48H8.12986V12.74H9.86986ZM9.67015 8.66985C8.94951 9.22223 8.12986 9.85049 8.12986 11.435H9.86986C9.86986 10.482 10.4885 9.94143 11.1233 9.38661C11.7925 8.80178 12.4799 8.20113 12.4799 7.085C12.4799 5.16229 10.9226 3.605 8.99986 3.605C7.07716 3.605 5.51986 5.16229 5.51986 7.085H7.25986C7.25986 6.128 8.04286 5.345 8.99986 5.345C9.95686 5.345 10.7399 6.128 10.7399 7.085C10.7399 7.84991 10.2355 8.23653 9.67015 8.66985Z" fill="white"/>
</mask>
<g mask="url(#mask0)">
<rect x="-3" y="-1" width="24" height="24" fill="#66788A"/>
</g>
</svg>
